<svg width="153" height="153" viewBox="0 0 153 153" fill="none" xmlns="http://www.w3.org/2000/svg">
<path d="M67.4862 34.5146L34.5146 67.4862" stroke="white" stroke-width="12.75" stroke-linecap="round" stroke-linejoin="round"/>
<path d="M118.487 85.5151L85.5151 118.487" stroke="white" stroke-width="12.75" stroke-linecap="round" stroke-linejoin="round"/>
<path d="M38.25 76.5H114.75" stroke="white" stroke-width="12.75" stroke-linecap="round" stroke-linejoin="round"/>
<path d="M76.4995 140.25C83.5411 140.25 89.2495 134.542 89.2495 127.5C89.2495 120.458 83.5411 114.75 76.4995 114.75C69.4579 114.75 63.7495 120.458 63.7495 127.5C63.7495 134.542 69.4579 140.25 76.4995 140.25Z" stroke="white" stroke-width="12.75" stroke-linecap="round" stroke-linejoin="round"/>
<path d="M76.4995 38.2505C83.5411 38.2505 89.2495 32.5421 89.2495 25.5005C89.2495 18.4589 83.5411 12.7505 76.4995 12.7505C69.4579 12.7505 63.7495 18.4589 63.7495 25.5005C63.7495 32.5421 69.4579 38.2505 76.4995 38.2505Z" stroke="white" stroke-width="12.75" stroke-linecap="round" stroke-linejoin="round"/>
<path d="M127.5 89.2495C134.542 89.2495 140.25 83.5411 140.25 76.4995C140.25 69.4579 134.542 63.7495 127.5 63.7495C120.458 63.7495 114.75 69.4579 114.75 76.4995C114.75 83.5411 120.458 89.2495 127.5 89.2495Z" stroke="white" stroke-width="12.75" stroke-linecap="round" stroke-linejoin="round"/>
<path d="M25.5005 89.2495C32.5421 89.2495 38.2505 83.5411 38.2505 76.4995C38.2505 69.4579 32.5421 63.7495 25.5005 63.7495C18.4589 63.7495 12.7505 69.4579 12.7505 76.4995C12.7505 83.5411 18.4589 89.2495 25.5005 89.2495Z" stroke="white" stroke-width="12.75" stroke-linecap="round" stroke-linejoin="round"/>
</svg>
