<svg width="834" height="153" viewBox="0 0 834 153" fill="none" xmlns="http://www.w3.org/2000/svg">
<path d="M258.747 123H198.597C195.707 123 193.737 120.767 194.263 118.009L196.758 104.088C197.283 101.33 200.041 98.966 202.931 98.966H260.586C262.293 98.966 264.001 97.6527 264.263 95.9453L265.051 91.6113C265.314 89.904 264.132 88.4593 262.425 88.4593H221.055C207.527 88.4593 198.597 77.8213 200.961 64.5567L202.668 55.232C205.032 41.9673 217.903 31.198 231.299 31.198H292.631C295.521 31.198 297.491 33.4307 296.965 36.32L294.601 49.4533C294.076 52.3427 291.318 54.5753 288.429 54.5753H232.349C230.642 54.5753 228.935 56.02 228.672 57.7273L227.621 63.506C227.359 65.2133 228.409 66.5267 230.117 66.5267H271.618C285.145 66.5267 294.076 77.296 291.712 90.5607L290.136 99.0973C287.772 112.362 274.901 123.131 261.505 123.131H258.747V123ZM298.397 118.009L313.237 36.32C313.631 33.4307 316.389 31.198 319.279 31.198H336.615C339.504 31.198 341.474 33.4307 340.949 36.32L335.17 67.84C335.17 67.84 334.907 69.9413 336.615 68.628L373.782 32.9053C374.964 31.7233 376.54 31.0667 378.116 31.0667H405.171C406.878 31.0667 407.403 33.0367 406.09 34.4813L362.356 76.508C361.962 76.902 361.831 77.5587 362.093 77.9527L390.461 119.848C391.381 121.161 390.067 123.131 388.229 123.131H361.305C359.729 123.131 358.416 122.475 357.628 121.293L340.949 96.7333L328.603 108.685C327.947 109.21 327.553 109.867 327.421 110.655L326.108 118.009C325.583 120.767 322.956 123 320.067 123H302.731C299.841 123 297.871 120.767 298.397 118.009ZM499.266 31.198C501.63 31.198 502.681 33.6933 501.105 35.7947L459.341 89.3787C458.947 90.1667 458.553 90.9547 458.159 91.874L453.431 118.009C452.905 120.767 450.279 123 447.389 123H430.053C427.164 123 425.194 120.767 425.719 118.009L430.447 91.874C430.316 90.9547 430.316 90.0353 430.185 89.116L407.858 35.7947C406.939 33.6933 408.909 31.198 411.273 31.198H433.337C435.175 31.198 436.62 32.1173 437.277 33.6933L448.703 60.748C449.097 61.6673 450.279 61.93 450.935 61.142L472.343 33.6933C473.525 32.1173 475.495 31.198 477.333 31.198H499.266ZM508.695 36.32C509.221 33.4307 511.847 31.198 514.737 31.198H532.073C534.962 31.198 536.932 33.4307 536.407 36.32L525.506 95.9453C525.243 97.6527 526.425 98.966 528.133 98.966H570.422C573.18 98.966 575.15 101.33 574.625 104.088L572.129 118.009C571.604 120.767 568.846 123 565.957 123H498.189C495.299 123 493.329 120.767 493.855 118.009L508.695 36.32ZM601.309 31.198H618.645C621.534 31.198 623.504 33.4307 622.979 36.32L608.138 118.009C607.613 120.767 604.986 123 602.097 123H584.761C581.871 123 579.901 120.767 580.427 118.009L595.267 36.32C595.793 33.4307 598.419 31.198 601.309 31.198ZM661.103 71.5173C660.447 70.598 658.871 70.8607 658.739 71.9113L650.334 118.009C649.809 120.767 647.182 123 644.293 123H627.088C624.199 123 622.229 120.767 622.754 118.009L637.595 36.32C637.989 33.4307 640.747 31.198 643.636 31.198H665.569C667.145 31.198 668.458 31.8547 669.246 33.0367L695.25 79.266C695.907 80.1853 697.351 79.9227 697.614 78.872L705.231 36.32C705.757 33.4307 708.515 31.198 711.404 31.198H728.609C731.498 31.198 733.337 33.4307 732.943 36.32L718.102 118.009C717.577 120.767 714.95 123 712.061 123H693.017C691.441 123 690.128 122.343 689.34 121.293L661.103 71.5173ZM737.003 123C734.113 123 732.143 120.767 732.669 118.009L747.509 36.0573C748.035 33.2993 750.793 30.9353 753.551 30.9353H831.037C832.745 30.9353 833.927 32.38 833.533 34.0873L830.512 51.4233C830.118 53.1307 828.542 54.444 826.835 54.444H772.988C772.463 54.444 771.806 54.9693 771.806 55.4947L770.099 64.9507C769.967 65.476 770.361 66.0013 770.887 66.0013H814.227C815.934 66.0013 816.985 67.3147 816.722 69.022L813.833 85.0447C813.57 86.6207 811.863 88.0653 810.155 88.0653H766.947C766.29 88.0653 765.765 88.4593 765.633 89.116L764.057 97.9153C763.926 98.4407 764.32 98.966 764.977 98.966H818.692C820.531 98.966 821.581 100.279 821.319 101.987L818.035 119.979C817.773 121.687 816.197 123 814.358 123H737.003Z" fill="#0084D1"/>
<path d="M67.4862 34.5146L34.5146 67.4862" stroke="#0084D1" stroke-width="12.75" stroke-linecap="round" stroke-linejoin="round"/>
<path d="M118.487 85.5151L85.5151 118.487" stroke="#0084D1" stroke-width="12.75" stroke-linecap="round" stroke-linejoin="round"/>
<path d="M38.25 76.5H114.75" stroke="#0084D1" stroke-width="12.75" stroke-linecap="round" stroke-linejoin="round"/>
<path d="M76.4995 140.25C83.5411 140.25 89.2495 134.542 89.2495 127.5C89.2495 120.458 83.5411 114.75 76.4995 114.75C69.4579 114.75 63.7495 120.458 63.7495 127.5C63.7495 134.542 69.4579 140.25 76.4995 140.25Z" stroke="#0084D1" stroke-width="12.75" stroke-linecap="round" stroke-linejoin="round"/>
<path d="M76.4995 38.2505C83.5411 38.2505 89.2495 32.5421 89.2495 25.5005C89.2495 18.4589 83.5411 12.7505 76.4995 12.7505C69.4579 12.7505 63.7495 18.4589 63.7495 25.5005C63.7495 32.5421 69.4579 38.2505 76.4995 38.2505Z" stroke="#0084D1" stroke-width="12.75" stroke-linecap="round" stroke-linejoin="round"/>
<path d="M127.5 89.2495C134.542 89.2495 140.25 83.5411 140.25 76.4995C140.25 69.4579 134.542 63.7495 127.5 63.7495C120.458 63.7495 114.75 69.4579 114.75 76.4995C114.75 83.5411 120.458 89.2495 127.5 89.2495Z" stroke="#0084D1" stroke-width="12.75" stroke-linecap="round" stroke-linejoin="round"/>
<path d="M25.5005 89.2495C32.5421 89.2495 38.2505 83.5411 38.2505 76.4995C38.2505 69.4579 32.5421 63.7495 25.5005 63.7495C18.4589 63.7495 12.7505 69.4579 12.7505 76.4995C12.7505 83.5411 18.4589 89.2495 25.5005 89.2495Z" stroke="#0084D1" stroke-width="12.75" stroke-linecap="round" stroke-linejoin="round"/>
</svg>
